<?xml version="1.0" encoding="UTF-8" standalone="no"?>
<svg
   xmlns:dc="http://purl.org/dc/elements/1.1/"
   xmlns:cc="http://creativecommons.org/ns#"
   xmlns:rdf="http://www.w3.org/1999/02/22-rdf-syntax-ns#"
   xmlns:svg="http://www.w3.org/2000/svg"
   xmlns="http://www.w3.org/2000/svg"
   xmlns:sodipodi="http://sodipodi.sourceforge.net/DTD/sodipodi-0.dtd"
   xmlns:inkscape="http://www.inkscape.org/namespaces/inkscape"
   width="21.534027mm"
   height="21.534027mm"
   viewBox="0 0 21.534026 21.534026"
   version="1.1"
   id="svg8"
   inkscape:version="1.0.2 (e86c8708, 2021-01-15)"
   sodipodi:docname="logo.svg"
   inkscape:export-filename="/Users/rosu/Documents/ynabsplitter/frontend/public/logo512.png"
   inkscape:export-xdpi="603.91864"
   inkscape:export-ydpi="603.91864">
  <defs
     id="defs2">
    <inkscape:path-effect
       effect="mirror_symmetry"
       start_point="159.31321,76.92721"
       end_point="159.31321,84.482772"
       center_point="159.31321,80.704991"
       id="path-effect1806"
       is_visible="true"
       lpeversion="1"
       mode="free"
       discard_orig_path="false"
       fuse_paths="false"
       oposite_fuse="false"
       split_items="false" />
    <inkscape:path-effect
       effect="mirror_symmetry"
       start_point="159.31321,76.92721"
       end_point="159.31321,84.482772"
       center_point="159.31321,80.704991"
       id="path-effect1771"
       is_visible="true"
       lpeversion="1"
       mode="free"
       discard_orig_path="false"
       fuse_paths="false"
       oposite_fuse="false"
       split_items="false" />
    <inkscape:path-effect
       effect="mirror_symmetry"
       start_point="159.27977,74.952034"
       end_point="159.27977,89.562173"
       center_point="159.27977,82.257103"
       id="path-effect1608"
       is_visible="true"
       lpeversion="1"
       mode="free"
       discard_orig_path="false"
       fuse_paths="true"
       oposite_fuse="false"
       split_items="false" />
    <inkscape:path-effect
       effect="mirror_symmetry"
       start_point="175.72752,77.074033"
       end_point="175.72752,78.749249"
       center_point="175.72752,77.911641"
       id="path-effect1043"
       is_visible="true"
       lpeversion="1"
       mode="free"
       discard_orig_path="false"
       fuse_paths="false"
       oposite_fuse="false"
       split_items="false" />
    <inkscape:path-effect
       effect="mirror_symmetry"
       start_point="175.75039,77.348062"
       end_point="175.75039,78.845446"
       center_point="175.75039,78.096754"
       id="path-effect206"
       is_visible="true"
       lpeversion="1"
       mode="free"
       discard_orig_path="false"
       fuse_paths="false"
       oposite_fuse="false"
       split_items="false" />
  </defs>
  <sodipodi:namedview
     id="base"
     pagecolor="#020000"
     bordercolor="#666666"
     borderopacity="1.0"
     inkscape:pageopacity="0"
     inkscape:pageshadow="2"
     inkscape:zoom="5.8383658"
     inkscape:cx="35.032523"
     inkscape:cy="39.854693"
     inkscape:document-units="mm"
     inkscape:current-layer="layer1"
     inkscape:document-rotation="0"
     showgrid="false"
     inkscape:snap-global="true"
     inkscape:object-nodes="false"
     inkscape:window-width="1252"
     inkscape:window-height="785"
     inkscape:window-x="89"
     inkscape:window-y="23"
     inkscape:window-maximized="0"
     showguides="false"
     inkscape:guide-bbox="true"
     inkscape:object-paths="true"
     fit-margin-top="0"
     fit-margin-left="0"
     fit-margin-right="0"
     fit-margin-bottom="0"
     lock-margins="true"
     inkscape:pagecheckerboard="true"
     inkscape:snap-bbox="true"
     inkscape:snap-midpoints="true"
     inkscape:bbox-paths="false"
     inkscape:bbox-nodes="false"
     inkscape:snap-bbox-edge-midpoints="false"
     inkscape:snap-bbox-midpoints="false">
    <sodipodi:guide
       position="10.767012,8.7206291"
       orientation="1,0"
       id="guide1817" />
  </sodipodi:namedview>
  <metadata
     id="metadata5">
    <rdf:RDF>
      <cc:Work
         rdf:about="">
        <dc:format>image/svg+xml</dc:format>
        <dc:type
           rdf:resource="http://purl.org/dc/dcmitype/StillImage" />
        <dc:title></dc:title>
      </cc:Work>
    </rdf:RDF>
  </metadata>
  <g
     inkscape:label="Layer 1"
     inkscape:groupmode="layer"
     id="layer1"
     style="display:inline;opacity:1"
     transform="translate(-148.54709,-70.429733)">
    <path
       d="m 157.95888,85.602462 c -0.43036,-0.06583 -0.46278,-0.128716 -0.46278,-0.128716 0.0884,-0.531564 -0.18571,-1.204622 -0.63474,-1.569151 -0.59641,-0.484405 -1.5043,-0.132648 -2.21076,-0.86957 -0.16507,-0.171944 -0.0688,1.928771 0.81552,2.724647 0.64653,0.581678 1.40802,0.402848 1.6173,0.307541 0.18964,-0.08647 0.32228,-0.24466 0.32228,-0.24466 0.34488,0.10612 0.51585,0.100222 0.51585,0.100222 0.12085,0.01472 0.18177,-0.298699 0.0373,-0.320313 z m -0.78801,0.03538 c -1.13289,-0.335052 -1.98478,-1.51118 -1.98478,-1.51118 0,0 0.74773,0.882343 2.06535,1.311719 0.002,0.06682 -0.0373,0.162125 -0.0806,0.199461 z"
       id="path1717-2"
       style="display:inline;fill:#8ed4ef;fill-opacity:1;stroke-width:0.00982559" />
    <g
       fill="#71c0e5"
       id="g14"
       transform="matrix(0.26458333,0,0,0.26458333,150.75722,72.172174)"
       style="display:inline">
      <a
         id="a27" />
    </g>
    <circle
       style="fill:#ffffff;fill-opacity:1;stroke:none;stroke-width:0.419566"
       id="path1646"
       cx="159.3141"
       cy="81.196747"
       r="10.767014" />
    <path
       id="path1717-0"
       style="display:inline;fill:#8ed4ef;fill-opacity:1;stroke-width:0.00982559"
       d="m 153.25655,79.898996 c -0.43036,-0.06583 -0.46278,-0.128716 -0.46278,-0.128716 0.0884,-0.531564 -0.18571,-1.204622 -0.63474,-1.569151 -0.59641,-0.484405 -1.5043,-0.132648 -2.21076,-0.86957 -0.16507,-0.171944 -0.0688,1.928771 0.81552,2.724647 0.64653,0.581678 1.40802,0.402848 1.6173,0.307541 0.18964,-0.08647 0.32228,-0.24466 0.32228,-0.24466 0.34488,0.10612 0.51585,0.100222 0.51585,0.100222 0.12085,0.01472 0.18177,-0.298699 0.0373,-0.320313 z m -0.78801,0.03538 c -1.13289,-0.335052 -1.98478,-1.51118 -1.98478,-1.51118 0,0 0.74773,0.882343 2.06535,1.311719 0.002,0.06682 -0.0373,0.162125 -0.0806,0.199461 z m 2.30092,4.375541 c -0.43036,-0.06583 -0.46278,-0.128716 -0.46278,-0.128716 0.0884,-0.531564 -0.18571,-1.204622 -0.63474,-1.569151 -0.59641,-0.484405 -1.5043,-0.132648 -2.21076,-0.86957 -0.16507,-0.171944 -0.0688,1.928771 0.81552,2.724647 0.64653,0.581678 1.40802,0.402848 1.6173,0.307541 0.18964,-0.08647 0.32228,-0.24466 0.32228,-0.24466 0.34488,0.10612 0.51585,0.100222 0.51585,0.100222 0.12085,0.01472 0.18177,-0.298699 0.0373,-0.320313 z m -0.78801,0.03538 c -1.13289,-0.335052 -1.98478,-1.51118 -1.98478,-1.51118 0,0 0.74773,0.882343 2.06535,1.311719 0.002,0.06682 -0.0373,0.162125 -0.0806,0.199461 z m 11.38842,-4.446301 c 0.43036,-0.06583 0.46278,-0.128716 0.46278,-0.128716 -0.0884,-0.531564 0.18571,-1.204622 0.63474,-1.569151 0.59641,-0.484405 1.5043,-0.132648 2.21076,-0.86957 0.16507,-0.171944 0.0688,1.928771 -0.81552,2.724647 -0.64653,0.581678 -1.40802,0.402848 -1.6173,0.307541 -0.18964,-0.08647 -0.32228,-0.24466 -0.32228,-0.24466 -0.34488,0.10612 -0.51585,0.100222 -0.51585,0.100222 -0.12085,0.01472 -0.18177,-0.298699 -0.0373,-0.320313 z m 0.78801,0.03538 c 1.13289,-0.335052 1.98478,-1.51118 1.98478,-1.51118 0,0 -0.74773,0.882343 -2.06535,1.311719 -0.002,0.06682 0.0373,0.162125 0.0806,0.199461 z m -2.30092,4.375541 c 0.43036,-0.06583 0.46278,-0.128716 0.46278,-0.128716 -0.0884,-0.531564 0.18571,-1.204622 0.63474,-1.569151 0.59641,-0.484405 1.5043,-0.132648 2.21076,-0.86957 0.16507,-0.171944 0.0688,1.928771 -0.81552,2.724647 -0.64653,0.581678 -1.40802,0.402848 -1.6173,0.307541 -0.18964,-0.08647 -0.32228,-0.24466 -0.32228,-0.24466 -0.34488,0.10612 -0.51585,0.100222 -0.51585,0.100222 -0.12085,0.01472 -0.18177,-0.298699 -0.0373,-0.320313 z m 0.78801,0.03538 c 1.13289,-0.335052 1.98478,-1.51118 1.98478,-1.51118 0,0 -0.74773,0.882343 -2.06535,1.311719 -0.002,0.06682 0.0373,0.162125 0.0806,0.199461 z"
       inkscape:path-effect="#path-effect1771"
       inkscape:original-d="m 153.25655,79.898996 c -0.43036,-0.06583 -0.46278,-0.128716 -0.46278,-0.128716 0.0884,-0.531564 -0.18571,-1.204622 -0.63474,-1.569151 -0.59641,-0.484405 -1.5043,-0.132648 -2.21076,-0.86957 -0.16507,-0.171944 -0.0688,1.928771 0.81552,2.724647 0.64653,0.581678 1.40802,0.402848 1.6173,0.307541 0.18964,-0.08647 0.32228,-0.24466 0.32228,-0.24466 0.34488,0.10612 0.51585,0.100222 0.51585,0.100222 0.12085,0.01472 0.18177,-0.298699 0.0373,-0.320313 z m -0.78801,0.03538 c -1.13289,-0.335052 -1.98478,-1.51118 -1.98478,-1.51118 0,0 0.74773,0.882343 2.06535,1.311719 0.002,0.06682 -0.0373,0.162125 -0.0806,0.199461 z m 2.30092,4.375541 c -0.43036,-0.06583 -0.46278,-0.128716 -0.46278,-0.128716 0.0884,-0.531564 -0.18571,-1.204622 -0.63474,-1.569151 -0.59641,-0.484405 -1.5043,-0.132648 -2.21076,-0.86957 -0.16507,-0.171944 -0.0688,1.928771 0.81552,2.724647 0.64653,0.581678 1.40802,0.402848 1.6173,0.307541 0.18964,-0.08647 0.32228,-0.24466 0.32228,-0.24466 0.34488,0.10612 0.51585,0.100222 0.51585,0.100222 0.12085,0.01472 0.18177,-0.298699 0.0373,-0.320313 z m -0.78801,0.03538 c -1.13289,-0.335052 -1.98478,-1.51118 -1.98478,-1.51118 0,0 0.74773,0.882343 2.06535,1.311719 0.002,0.06682 -0.0373,0.162125 -0.0806,0.199461 z" />
    <path
       id="path1717-0-5"
       style="display:inline;fill:#8ed4ef;fill-opacity:1;stroke-width:0.00982559"
       d="m 159.51673,79.836452 c -0.0369,-0.4338 0.0166,-0.48006 0.0166,-0.48006 0.53748,-0.03868 0.91718,-1.13792 0.85743,-1.713193 -0.0684,-0.764818 -0.71627,-1.171972 -1.17229,-2.167459 0.005,-0.238305 -1.18857,1.304535 -1.12603,2.492613 0.0534,0.681792 0.57623,1.039594 1.08062,1.381928 -0.0223,0.360142 0.0235,0.524969 0.0235,0.524969 0.014,0.120907 0.33298,0.10668 0.32013,-0.03883 z m -0.21912,-0.757754 c 0.0601,-1.179868 -0.0719,-2.463069 -0.0719,-2.463069 0,0 0.39323,1.11309 0.28472,2.494659 -0.0645,0.01762 -0.16636,0.0017 -0.21279,-0.03159 z"
       sodipodi:nodetypes="cccccccccccccc" />
  </g>
  <g
     inkscape:groupmode="layer"
     id="layer2"
     inkscape:label="Layer 2"
     transform="translate(-148.54709,-70.429733)"
     style="mix-blend-mode:normal">
    <path
       d="m 154.06171,80.004433 3.70774,5.575693 v 3.484562 h 1.51032 1.51032 v -3.484562 l 3.70774,-5.575693 m -3.20675,0 -2.01131,3.238697 -2.01131,-3.238697 m -3.20675,0 h 3.20675 C 156.561,78.697745 155.2054,77.020411 155.37015,75.86138 l 1.58293,0.09199 -2.61045,-2.624556 -2.89646,2.645605 1.47399,-0.13798 c -0.60725,1.817141 1.03662,3.77877 1.14155,4.167956 z m 10.43612,0 h -3.20675 c 0.70746,-1.306688 2.06306,-2.984022 1.89831,-4.143053 l -1.58293,0.09199 2.61045,-2.624556 2.89646,2.645605 -1.47399,-0.13798 c 0.60725,1.817141 -1.03662,3.77877 -1.14155,4.167956 z"
       id="path12-1"
       sodipodi:nodetypes="cccccccccccccccccc"
       style="display:inline;fill:#71c0e5;fill-opacity:1;stroke-width:0.264583"
       inkscape:path-effect="#path-effect1608"
       inkscape:original-d="m 154.06171,80.004433 3.70774,5.575693 v 3.484562 h 2.96333 v -3.503083 l 3.72534,-5.598583 h -3.28084 l -1.89706,3.280833 -2.01176,-3.239422 m -3.20675,0 h 3.20675 C 156.561,78.697745 155.2054,77.020411 155.37015,75.86138 l 1.58293,0.09199 -2.61045,-2.624556 -2.89646,2.645605 1.47399,-0.13798 c -0.60725,1.817141 1.03662,3.77877 1.14155,4.167956 z"
       transform="translate(0.0343323)" />
  </g>
</svg>
